<svg width="21" height="20" viewBox="0 0 21 20" fill="none" xmlns="http://www.w3.org/2000/svg">
<g id="eye-off-line">
<path id="Vector" d="M15.8103 16.0809C14.3183 17.0105 12.5873 17.5028 10.8205 17.5001C6.24624 17.5001 2.44062 14.2667 1.64233 10.0001C2.00714 8.05899 3.00105 6.2858 4.47577 4.94506L1.82133 2.34006L3.02172 1.16089L19.8179 17.6609L18.6175 18.8392L15.8095 16.0809H15.8103ZM5.67531 6.12505C4.52243 7.15471 3.71932 8.50737 3.37463 10.0001C3.63956 11.1388 4.17144 12.201 4.92793 13.1022C5.68442 14.0034 6.64464 14.7187 7.73214 15.1911C8.81964 15.6636 10.0044 15.8801 11.1921 15.8235C12.3798 15.7669 13.5376 15.4387 14.5735 14.8651L12.8531 13.1751C12.1207 13.6282 11.2533 13.8235 10.3931 13.7288C9.53292 13.634 8.73104 13.255 8.11899 12.6537C7.50695 12.0525 7.12106 11.2648 7.02464 10.4199C6.92821 9.57489 7.12696 8.72281 7.5883 8.00339L5.67531 6.12505ZM11.5958 11.9401L8.84553 9.23839C8.69458 9.61584 8.65906 10.0284 8.74331 10.4253C8.82757 10.8223 9.02794 11.1865 9.31985 11.4733C9.61176 11.76 9.98252 11.9569 10.3867 12.0396C10.7908 12.1224 11.2107 12.0875 11.595 11.9392L11.5958 11.9401ZM18.2917 13.8267L17.0778 12.6351C17.6448 11.8411 18.0486 10.946 18.2663 10.0001C18.0357 9.00816 17.6023 8.07268 16.9922 7.25047C16.3822 6.42826 15.6083 5.73649 14.7176 5.21723C13.8269 4.69796 12.838 4.36203 11.8111 4.22986C10.7841 4.09769 9.74053 4.17204 8.74373 4.44839L7.40506 3.13339C8.46293 2.72506 9.61582 2.50006 10.8205 2.50006C15.3947 2.50006 19.2003 5.73339 19.9986 10.0001C19.7386 11.3881 19.1544 12.698 18.2917 13.8267ZM10.5855 6.25672C11.1254 6.22394 11.6663 6.30428 12.1723 6.4924C12.6783 6.68053 13.1378 6.97215 13.5203 7.34793C13.9029 7.72371 14.1997 8.17508 14.3912 8.6721C14.5828 9.16913 14.6645 9.70046 14.6312 10.2309L10.5846 6.25672H10.5855Z" fill="#646B78"/>
</g>
</svg>
