<svg width="24" height="24" viewBox="0 0 24 24" fill="none" xmlns="http://www.w3.org/2000/svg">
<g id="fluent-emoji-high-contrast:office-building">
<path id="Vector" d="M9.75 22.5V19.6875C9.75 19.17 10.17 18.75 10.6875 18.75H13.3125C13.83 18.75 14.2575 19.17 14.2575 19.695V22.5H22.5V6.975C22.5 6.74847 22.4554 6.52416 22.3687 6.31487C22.282 6.10558 22.1549 5.91542 21.9948 5.75524C21.8346 5.59506 21.6444 5.468 21.4351 5.38131C21.2258 5.29462 21.0015 5.25 20.775 5.25H19.5V3.345C19.5 2.325 18.675 1.5 17.655 1.5H6.345C5.325 1.5 4.5 2.325 4.5 3.345V5.25H3.225C2.99847 5.25 2.77416 5.29462 2.56487 5.38131C2.35558 5.468 2.16542 5.59506 2.00524 5.75524C1.84506 5.91542 1.718 6.10558 1.63131 6.31487C1.54462 6.52416 1.5 6.74847 1.5 6.975V22.5H9.75ZM4.5 18H3.75C3.3375 18 3 17.6625 3 17.25V16.5C3 16.0875 3.3375 15.75 3.75 15.75H4.5V18ZM4.5 14.25H3.75C3.3375 14.25 3 13.9125 3 13.5V12.75C3 12.3375 3.3375 12 3.75 12H4.5V14.25ZM4.5 10.5H3.75C3.3375 10.5 3 10.1625 3 9.75V9C3 8.5875 3.3375 8.25 3.75 8.25H4.5V10.5ZM19.5 8.25H20.25C20.6625 8.25 21 8.5875 21 9V9.75C21 10.17 20.6625 10.5 20.25 10.5H19.5V8.25ZM19.5 12H20.25C20.6625 12 21 12.3375 21 12.75V13.5C21 13.92 20.6625 14.25 20.25 14.25H19.5V12ZM19.5 15.75H20.25C20.6625 15.75 21 16.0875 21 16.5V17.25C21 17.67 20.6625 18 20.25 18H19.5V15.75ZM8.625 13.5C8.4225 13.5 8.25 13.335 8.25 13.125V11.6175C8.25 11.415 8.415 11.2425 8.625 11.2425H10.8825C11.085 11.2425 11.2575 11.4075 11.2575 11.6175V13.125C11.2555 13.2251 11.2144 13.3205 11.1429 13.3906C11.0713 13.4608 10.9752 13.5 10.875 13.5H8.625ZM15.75 11.625V13.1325C15.75 13.335 15.585 13.5 15.3825 13.5075H13.125C12.915 13.5075 12.75 13.335 12.75 13.1325V11.625C12.75 11.415 12.9225 11.25 13.125 11.25H15.375C15.585 11.25 15.75 11.4225 15.75 11.625ZM11.25 15.375V16.8825C11.25 17.085 11.085 17.25 10.8825 17.2575H8.625C8.415 17.2575 8.25 17.085 8.25 16.8825V15.375C8.25 15.165 8.4225 15 8.625 15H10.875C11.085 15 11.25 15.1725 11.25 15.375ZM15.75 15.375V16.8825C15.75 17.085 15.585 17.25 15.3825 17.2575H13.125C12.915 17.2575 12.75 17.085 12.75 16.8825V15.375C12.75 15.165 12.9225 15 13.125 15H15.375C15.585 15 15.75 15.1725 15.75 15.375ZM11.25 4.125V5.6325C11.25 5.835 11.085 6 10.8825 6.0075H8.625C8.415 6.0075 8.25 5.835 8.25 5.6325V4.125C8.25 3.915 8.4225 3.75 8.625 3.75H10.875C11.085 3.75 11.25 3.9225 11.25 4.125ZM15.75 4.125V5.6325C15.75 5.835 15.585 6 15.3825 6.0075H13.125C12.915 6.0075 12.75 5.835 12.75 5.6325V4.125C12.75 3.915 12.9225 3.75 13.125 3.75H15.375C15.585 3.75 15.75 3.9225 15.75 4.125ZM11.25 7.875V9.3825C11.25 9.585 11.085 9.75 10.8825 9.7575H8.625C8.415 9.7575 8.25 9.585 8.25 9.3825V7.875C8.25 7.665 8.4225 7.5 8.625 7.5H10.875C11.085 7.5 11.25 7.6725 11.25 7.875ZM15.75 7.875V9.3825C15.75 9.585 15.585 9.75 15.3825 9.7575H13.125C12.915 9.7575 12.75 9.585 12.75 9.3825V7.875C12.75 7.665 12.9225 7.5 13.125 7.5H15.375C15.585 7.5 15.75 7.6725 15.75 7.875Z" fill="#333333"/>
</g>
</svg>
