<svg width="32" height="32" viewBox="0 0 32 32" fill="none" xmlns="http://www.w3.org/2000/svg">
<g id="fluent:building-bank-24-filled">
<path id="Vector" d="M14.624 3.10003C15.0235 2.80832 15.5053 2.65112 16 2.65112C16.4947 2.65112 16.9765 2.80832 17.376 3.10003L27.2707 10.3214C28.5733 11.2707 27.9027 13.3307 26.292 13.3347H5.70667C4.096 13.3307 3.42667 11.2707 4.728 10.3214L14.624 3.10003ZM17.3333 8.33336C17.3333 7.97974 17.1929 7.6406 16.9428 7.39055C16.6928 7.1405 16.3536 7.00003 16 7.00003C15.6464 7.00003 15.3072 7.1405 15.0572 7.39055C14.8071 7.6406 14.6667 7.97974 14.6667 8.33336C14.6667 8.68698 14.8071 9.02612 15.0572 9.27617C15.3072 9.52622 15.6464 9.66669 16 9.66669C16.3536 9.66669 16.6928 9.52622 16.9428 9.27617C17.1929 9.02612 17.3333 8.68698 17.3333 8.33336ZM15 21.3334H12.3333V14.6667H15V21.3334ZM19.6667 21.3334H17V14.6667H19.6667V21.3334ZM24.6667 21.3334H21.6667V14.6667H24.6667V21.3334ZM25 22.6667H7C6.20435 22.6667 5.44129 22.9828 4.87868 23.5454C4.31607 24.108 4 24.871 4 25.6667V26.3334C4 26.8867 4.448 27.3334 5 27.3334H27C27.2652 27.3334 27.5196 27.228 27.7071 27.0405C27.8946 26.8529 28 26.5986 28 26.3334V25.6667C28 24.871 27.6839 24.108 27.1213 23.5454C26.5587 22.9828 25.7957 22.6667 25 22.6667ZM10.3333 21.3334H7.33333V14.6667H10.3333V21.3334Z" fill="#009EE0"/>
</g>
</svg>
