<svg width="25" height="25" viewBox="0 0 25 25" fill="none" xmlns="http://www.w3.org/2000/svg">
<g id="gis:earth-network" clip-path="url(#clip0_19_1191)">
<path id="Vector" d="M9.332 0C7.6135 0 6.207 1.4065 6.207 3.125C6.207 4.8435 7.6135 6.25 9.332 6.25C9.661 6.25 9.9785 6.198 10.277 6.1025L11.921 9.59675C9.88975 10.8765 8.8295 13.3775 9.4825 15.8142C9.5969 16.2405 9.76129 16.6518 9.97225 17.0395L5.53475 19.8905L5.53425 19.8902C4.95975 19.195 4.09175 18.75 3.125 18.75C1.4065 18.75 0 20.1565 0 21.875C0 23.5935 1.4065 25 3.125 25C4.8435 25 6.25 23.5935 6.25 21.875C6.25 21.4807 6.173 21.104 6.038 20.7558L10.526 17.8725C11.8805 19.5592 14.152 20.3862 16.3715 19.7915C19.3665 18.989 21.1515 15.8973 20.349 12.9023C20.1038 11.9838 19.6284 11.1432 18.9678 10.4598L21.437 7.25775C21.7689 7.41651 22.1321 7.49927 22.5 7.5C23.8732 7.5 25 6.37325 25 5C25 3.62675 23.8732 2.5 22.5 2.5C21.1268 2.5 20 3.62675 20 5C20 5.63475 20.2425 6.21475 20.6373 6.65725L18.2105 9.80375C16.8855 8.84725 15.1573 8.47 13.46 8.92475C13.237 8.98475 13.0215 9.0585 12.8125 9.1425L11.1675 5.646C11.9465 5.076 12.457 4.1585 12.457 3.125C12.457 1.4065 11.0505 0 9.332 0ZM9.332 1.25C10.375 1.25 11.207 2.082 11.207 3.125C11.207 4.168 10.375 5 9.332 5C9.0854 5.00133 8.84099 4.95373 8.6129 4.85997C8.38482 4.76622 8.17759 4.62816 8.00322 4.45378C7.82884 4.27941 7.69078 4.07218 7.59703 3.8441C7.50327 3.61601 7.45567 3.3716 7.457 3.125C7.457 2.082 8.289 1.25 9.332 1.25ZM22.5 3.75C23.1978 3.75 23.75 4.30225 23.75 5C23.75 5.69775 23.1978 6.25 22.5 6.25C21.8022 6.25 21.25 5.69775 21.25 5C21.25 4.30225 21.8022 3.75 22.5 3.75ZM15.1132 9.36125C17.2393 9.4455 19.157 10.8923 19.7418 13.0518L19.7455 13.0642L19.7485 13.0793C20.4533 15.74 18.8707 18.475 16.21 19.1877C13.5442 19.902 10.8007 18.3183 10.0865 15.6528C9.37225 12.9873 10.9565 10.2427 13.622 9.5285C14.1078 9.39797 14.6106 9.34175 15.1132 9.36125ZM14.5282 9.675C14.4639 9.68033 14.3995 9.687 14.335 9.695C14.3293 9.709 14.3595 9.72875 14.4555 9.75425L14.5635 9.761C14.6833 9.7125 14.6182 9.6845 14.5282 9.675ZM15.4685 9.69075C15.3953 9.72925 15.2785 9.77075 15.16 9.7975C15.225 10.03 15.4952 10.6243 15.8195 10.4163C15.7603 10.447 16.0933 10.637 15.969 10.717C16.027 11.2233 15.415 10.517 15.2175 10.5813C14.9317 10.712 15.3275 10.765 15.239 10.8663C15.021 11.1858 15.6178 11.2992 15.4655 10.9015C15.5885 11.222 15.6975 11.1818 15.9602 11.093C15.3772 11.3598 16.3913 11.342 16.1355 11.6222C15.822 11.676 15.6812 11.836 15.9342 12.089C15.9275 12.3882 16.2048 12.327 16.3242 12.3977L16.4245 12.3605L16.4885 12.3343C16.486 12.3345 16.4835 12.336 16.4807 12.3363C16.8307 12.1168 16.4293 11.4062 16.849 11.3475C16.8428 11.6652 17.3878 11.8203 17.0212 11.4598C16.7913 11.2887 17.62 11.4668 17.3275 11.6595C17.75 11.988 17.3165 11.2495 17.6073 11.404C17.829 11.6267 17.9535 11.3833 17.992 11.3625C18.0845 11.3077 18.2472 11.3113 18.2932 11.324C18.7743 11.587 17.9875 11.6353 18.0515 11.9178C18.14 12.0858 17.629 11.9798 17.5485 11.949C17.2085 11.47 16.9015 12.121 16.594 12.2952C16.5103 12.4055 16.4277 12.5165 16.346 12.6283C16.3935 13.115 16.0945 13.4987 16.0818 14.0075C16.1268 14.2875 16.3182 14.64 16.3592 14.944C16.5482 15.2975 16.9627 15.4175 17.323 15.519C17.5972 15.6068 17.7635 15.2528 18.0145 15.182C18.148 14.799 18.5645 14.9422 18.757 14.865C18.6245 15.2878 19.0993 15.4595 19.0905 15.8805C18.9713 16.1455 18.9985 16.4475 18.973 16.7323C19.2879 16.1958 19.4928 15.6021 19.5757 14.9856C19.6587 14.3691 19.6181 13.7423 19.4562 13.1418C18.9432 11.2275 17.3225 9.90975 15.4685 9.69075ZM13.9475 9.79225C13.8542 9.79918 13.7613 9.81086 13.6692 9.82725C11.6947 10.3707 10.3612 12.0947 10.2273 14.0315C10.2605 13.9665 10.3075 13.9263 10.3722 13.93C10.594 13.813 10.6147 14.205 10.696 14.4295C10.8945 14.458 10.61 13.7305 10.9753 13.614C11.1498 13.2693 11.371 12.9504 11.6327 12.6663C11.775 12.7193 12.0287 12.6403 12.1795 12.3973C11.943 12.4123 11.881 12.2452 12.1628 12.0972C12.5852 11.7642 12.0078 12.3798 12.4143 12.3378C12.8708 12.349 12.3802 11.9528 12.5293 11.7063C12.2808 11.6195 12.4688 10.9733 12.1678 11.3188C12.2703 11.1938 12.0273 11.0763 12.1228 10.9792C12.205 11.098 12.4892 11.2153 12.492 10.89C12.7387 10.867 12.614 10.5343 12.692 10.3162C13.234 9.945 12.8945 10.6575 12.949 10.9513C13.292 11.4613 13.4082 10.5965 13.7452 10.4855C14.1652 10.3883 14.0107 10.0035 13.9475 9.79225ZM15.6678 9.9425C15.7703 10.041 15.5887 9.9605 15.6337 9.9445C15.645 9.94186 15.6563 9.94119 15.6678 9.9425ZM15.6825 10.0833C15.701 10.08 15.7483 10.085 15.8387 10.1038C16.0537 10.2635 15.6012 10.0972 15.6825 10.0833ZM16.0658 10.216C16.132 10.198 16.3493 10.264 16.3455 10.4003C16.2048 10.5933 16.2675 10.4935 16.1893 10.342C16.0405 10.268 16.0257 10.227 16.0658 10.216ZM14.3562 10.3792C14.3038 10.3777 14.2514 10.3845 14.201 10.3993C14.1155 10.426 14.0615 10.4797 14.1217 10.5642C14.1853 10.5992 14.2617 10.591 14.3287 10.5735C14.628 10.4522 14.512 10.382 14.3562 10.3792ZM15.2388 10.4368C15.232 10.4368 15.2352 10.4505 15.259 10.4895C15.365 10.5603 15.2582 10.437 15.2385 10.4368M14.9277 10.445C14.923 10.4487 14.9213 10.4595 14.9253 10.4812C15.0238 10.5457 14.9478 10.429 14.9277 10.445ZM17.4195 10.6418C17.436 10.6353 17.4762 10.6502 17.5497 10.7C17.5872 10.5717 18.0018 10.735 17.714 10.8615C17.7178 11.1025 17.348 10.6702 17.4195 10.6418ZM12.2443 10.7273C12.277 10.7463 12.201 10.9062 12.063 10.969C11.892 11.2115 12.013 10.913 12.0962 10.8475C12.1567 10.7735 12.1985 10.7382 12.2233 10.7282C12.2324 10.7246 12.2394 10.7242 12.2443 10.7273ZM11.7603 11.0417C11.9327 11.0087 11.8582 11.4523 11.6753 11.5223C11.572 11.5398 11.5455 11.7172 11.4815 11.7902C11.4832 11.8272 11.3422 11.244 11.5995 11.151C11.6675 11.0822 11.7205 11.0495 11.7603 11.0417ZM16.984 11.1482C17.0405 11.1427 17.286 11.2073 17.3935 11.2688C17.4767 11.3713 17.1985 11.2232 17.1567 11.2487C17.0055 11.1885 16.9603 11.1593 16.9743 11.1508C16.9773 11.1493 16.9806 11.1484 16.984 11.1482ZM17.684 11.194C17.6915 11.1883 17.719 11.1955 17.7808 11.2288C17.8213 11.3445 17.662 11.2115 17.684 11.194ZM18.0327 11.45C18.0245 11.4478 18.0157 11.4483 18.0077 11.4515C17.9867 11.46 17.9705 11.4905 17.9722 11.5577C18.1515 11.591 18.0925 11.4647 18.0327 11.45ZM16.7515 11.6838C16.7322 11.6923 16.711 11.7352 16.694 11.839C16.8472 11.9443 16.809 11.658 16.7515 11.6838ZM11.915 12.0795C11.927 12.0765 11.949 12.0813 11.985 12.1005C11.935 12.1645 11.8792 12.0887 11.915 12.0795ZM10.9878 12.206C11.0013 12.204 11.024 12.2148 11.0603 12.2465C11.0487 12.4607 10.9292 12.2145 10.9878 12.206ZM11.0585 12.4438C11.0645 12.4408 11.0722 12.443 11.082 12.4528C11.063 12.742 11.017 12.4653 11.0585 12.4438ZM14.5503 12.6655C14.5262 12.6697 14.496 12.6885 14.4648 12.7325C14.6403 12.7708 14.6225 12.6528 14.5503 12.6655ZM14.7828 12.6812C14.7723 12.68 14.7548 12.692 14.7295 12.728C14.7855 12.803 14.8145 12.6842 14.7828 12.6812ZM11.0215 12.7487C11.033 12.7477 11.0448 12.7568 11.054 12.7823C10.9215 12.9392 10.9712 12.752 11.0215 12.7487ZM15.6943 12.9655C15.6922 12.9646 15.6899 12.9642 15.6877 12.9643C15.6854 12.9644 15.6832 12.9649 15.6812 12.966C15.6725 12.971 15.6627 12.9843 15.6532 13.012C15.7282 13.084 15.7222 12.9792 15.6943 12.9655ZM16.0855 13.2395C16.0655 13.2448 16.0535 13.287 16.0737 13.3993C16.2118 13.3955 16.1293 13.2277 16.0855 13.2395ZM15.8842 13.3993C15.8485 13.3994 15.813 13.4046 15.7788 13.4148C15.723 13.4333 15.693 13.4688 15.7513 13.5253L15.7705 13.5285L15.8667 13.5028C16.0798 13.4378 15.993 13.3977 15.8842 13.3993ZM10.8468 14.306C10.838 14.3085 10.8383 14.3317 10.8603 14.3935C10.9848 14.4803 10.873 14.2985 10.8468 14.306ZM10.8368 14.4792C10.8278 14.48 10.8215 14.5097 10.8247 14.5925C10.9192 14.733 10.8645 14.4765 10.8368 14.4792ZM10.5892 14.633C10.3965 14.664 10.83 14.9023 10.8825 15.0448C11.255 15.0452 10.8878 15.2572 11.2133 15.2972C11.698 15.3377 11.3295 15.0555 11.1217 15.031C11.1637 14.8933 10.88 14.876 10.7128 14.6335C10.6718 14.6282 10.6303 14.6281 10.5892 14.633ZM10.3918 14.682C10.371 14.6768 10.3378 14.7188 10.284 14.837C10.2628 14.8131 10.2458 14.7857 10.234 14.756C10.2488 14.9287 10.2735 15.1019 10.308 15.2758C10.447 15.537 10.575 15.8492 10.76 16.0623C10.9195 16.3412 10.8767 15.9478 10.9598 16.179C11.1465 16.6077 10.9973 17.141 11.4475 17.4797C11.7225 17.8692 12.154 18.0783 12.5 18.389C13.0452 18.7167 13.6513 18.9302 14.2815 19.0168C14.359 18.8962 14.3815 18.741 14.5085 18.6642C15.1753 18.6477 14.6952 17.9467 15.0735 17.6575C15.2185 17.0592 14.2867 17.2195 13.9115 17.1165C13.3403 17.1805 13.2127 16.499 12.6755 16.488C12.25 16.5323 12.2407 15.9043 11.95 16.0158C11.7045 16.1333 11.5065 15.805 11.3695 15.869C11.3445 15.9148 11.1252 15.679 11.05 16.024C10.582 16.0448 10.7552 15.4545 10.4925 15.2205C10.4082 15.1385 10.4545 14.6975 10.3918 14.682ZM10.995 14.6882C10.9936 14.6882 10.9922 14.6884 10.9909 14.689C10.9896 14.6895 10.9885 14.6903 10.9875 14.6912C10.9792 14.7005 10.987 14.7315 11.0335 14.7928L11.0592 14.8015C11.0603 14.7325 11.0155 14.688 10.995 14.6882ZM15.7052 14.8488C15.6943 14.852 15.6817 14.8637 15.6692 14.8895C15.7742 14.9857 15.7533 14.8352 15.7052 14.8488ZM15.43 14.8588C15.405 14.8625 15.41 14.8813 15.494 14.927C15.6818 14.9145 15.4845 14.8503 15.43 14.8588ZM15.7185 14.9838C15.711 14.9826 15.7032 14.9839 15.6965 14.9875C15.6803 14.995 15.6593 15.0125 15.6335 15.0457C15.7335 15.1087 15.7605 14.9925 15.7185 14.9838ZM15.5765 15.0393C15.567 15.0408 15.557 15.058 15.549 15.1032C15.624 15.1707 15.6042 15.035 15.5765 15.0393ZM10.8225 15.1202C10.7958 15.1217 10.8 15.152 10.8885 15.2385C11.0915 15.2535 10.8815 15.117 10.8225 15.1202ZM18.6405 15.1827C18.631 15.1842 18.6205 15.201 18.6125 15.2463C18.6875 15.3138 18.6682 15.1785 18.6405 15.1827ZM11.5605 15.2195C11.5511 15.2176 11.5414 15.2185 11.5325 15.222C11.51 15.231 11.496 15.261 11.5075 15.3265C11.7142 15.3527 11.63 15.2317 11.5605 15.2195ZM11.9657 15.4832C11.9555 15.482 11.9567 15.5268 11.9845 15.6555L12.007 15.7242C12.1362 15.9055 11.997 15.4867 11.9657 15.4832ZM3.125 20C4.168 20 5 20.832 5 21.875C5 22.918 4.168 23.75 3.125 23.75C2.8784 23.7513 2.63399 23.7037 2.4059 23.61C2.17782 23.5162 1.97059 23.3782 1.79622 23.2038C1.62184 23.0294 1.48378 22.8222 1.39003 22.5941C1.29627 22.366 1.24867 22.1216 1.25 21.875C1.25 20.832 2.082 20 3.125 20Z" fill="#333333"/>
</g>
<defs>
<clipPath id="clip0_19_1191">
<rect width="25" height="25" fill="white"/>
</clipPath>
</defs>
</svg>
