<svg width="32" height="33" viewBox="0 0 32 33" fill="none" xmlns="http://www.w3.org/2000/svg">
<g id="hugeicons:file-01">
<g id="Group">
<path id="Vector" d="M4.6665 13.8334C4.6665 8.80541 4.6665 6.29075 6.3265 4.72941C7.9865 3.16808 10.6572 3.16675 15.9998 3.16675H17.0305C21.3772 3.16675 23.5532 3.16675 25.0625 4.23075C25.4945 4.53475 25.8785 4.89741 26.2025 5.30408C27.3332 6.72541 27.3332 8.77075 27.3332 12.8641V16.2574C27.3332 20.2081 27.3332 22.1841 26.7078 23.7614C25.7025 26.2987 23.5772 28.2987 20.8812 29.2454C19.2052 29.8334 17.1078 29.8334 12.9078 29.8334C10.5105 29.8334 9.3105 29.8334 8.35317 29.4974C6.81317 28.9561 5.5985 27.8134 5.02384 26.3641C4.6665 25.4627 4.6665 24.3334 4.6665 22.0761V13.8334Z" stroke="#2CADD8" stroke-width="2" stroke-linecap="round" stroke-linejoin="round"/>
<path id="Vector_2" d="M27.3332 16.5002C27.3332 17.6788 26.865 18.8091 26.0316 19.6425C25.1981 20.476 24.0678 20.9442 22.8892 20.9442C22.0012 20.9442 20.9545 20.7895 20.0918 21.0202C19.7151 21.1215 19.3715 21.32 19.0956 21.5959C18.8197 21.8718 18.6212 22.2154 18.5198 22.5922C18.2892 23.4548 18.4438 24.5015 18.4438 25.3895C18.4438 25.9731 18.3289 26.551 18.1056 27.0901C17.8822 27.6293 17.5549 28.1192 17.1422 28.5319C16.7296 28.9445 16.2397 29.2719 15.7005 29.4952C15.1613 29.7185 14.5834 29.8335 13.9998 29.8335M10.6665 9.8335H19.9998M10.6665 15.1668H14.6665" stroke="#2CADD8" stroke-width="2" stroke-linecap="round" stroke-linejoin="round"/>
</g>
</g>
</svg>
