<svg width="56" height="56" viewBox="0 0 56 56" fill="none" xmlns="http://www.w3.org/2000/svg">
<g id="logo">
<circle id="logo_2" cx="28" cy="28" r="28" fill="#F2F5F9"/>
<g id="glob">
<path id="Shape" d="M8 27.999C8.01921 16.9714 16.9323 8.00205 27.9989 8C39.0656 8.00205 47.9787 16.9735 48 27.999C47.9787 39.0286 39.0656 47.9979 27.9989 48C16.9323 47.9979 8.01921 39.0286 8 27.999ZM9.24433 27.999C9.24646 38.4027 17.6601 46.7852 27.9989 46.8037C38.3378 46.7852 46.7535 38.4027 46.7535 27.999C46.7535 17.5952 38.3378 9.2148 27.9989 9.19427C17.6622 9.2148 9.2486 17.5952 9.24433 27.999Z" fill="#009EE0"/>
<path id="Shape_2" d="M19.9719 42.0105C17.893 38.3868 16.6296 33.4478 16.6274 28C16.6296 22.5522 17.893 17.6132 19.9719 13.9895C22.0445 10.3802 24.9896 8.01026 28.3932 8C31.7968 8.01026 34.7419 10.3802 36.8124 13.9895C38.8934 17.6132 40.1547 22.5542 40.1569 28C40.1569 33.4478 38.8934 38.3868 36.8124 42.0105C34.7419 45.6198 31.7947 47.9918 28.3932 48C24.9896 47.9918 22.0445 45.6218 19.9719 42.0105ZM35.737 41.4277C37.6913 38.0298 38.9251 33.2673 38.923 28C38.9251 22.7348 37.6913 17.9702 35.737 14.5723C33.7743 11.1599 31.1482 9.18806 28.3932 9.19623C25.6382 9.18601 23.01 11.1599 21.0494 14.5723C19.0951 17.9702 17.8613 22.7348 17.8613 28C17.8613 33.2673 19.093 38.0298 21.0494 41.4277C23.0121 44.8401 25.6382 46.8119 28.3932 46.8038C31.1482 46.814 33.7764 44.8401 35.737 41.4277Z" fill="#009EE0"/>
<path id="Rectangle" d="M29.1764 8.75476H28.3921V47.2453H29.1764V8.75476Z" fill="#009EE0"/>
<path id="Rectangle_2" d="M47.2156 28.3774H8.78418V29.1322H47.2156V28.3774Z" fill="#009EE0"/>
<path id="Rectangle_3" d="M44.8627 17.8113H11.1372V19.3208H44.8627V17.8113Z" fill="#009EE0"/>
<path id="Rectangle_4" d="M44.8627 38.1887H11.1372V38.9434H44.8627V38.1887Z" fill="#009EE0"/>
</g>
</g>
</svg>
