<svg width="24" height="24" viewBox="0 0 24 24" fill="none" xmlns="http://www.w3.org/2000/svg">
<g id="solar:document-add-bold">
<path id="Vector" d="M16.5191 16.5009C16.6941 16.3649 16.8531 16.2059 17.1701 15.8889L21.1271 11.9309C21.2231 11.8359 21.1791 11.6709 21.0521 11.6259C20.4324 11.4111 19.8701 11.0574 19.4081 10.5919C18.9426 10.1299 18.5889 9.5676 18.3741 8.94792C18.3291 8.82092 18.1641 8.77692 18.0691 8.87292L14.1101 12.8299C13.7931 13.1469 13.6341 13.3059 13.4981 13.4809C13.3361 13.6882 13.1988 13.9103 13.0861 14.1469C12.9911 14.3469 12.9201 14.5609 12.7781 14.9869L12.5941 15.5369L12.3021 16.4119L12.0291 17.2319C11.9951 17.3347 11.9903 17.4449 12.0153 17.5503C12.0402 17.6556 12.094 17.7519 12.1706 17.8285C12.2471 17.905 12.3434 17.9588 12.4488 17.9838C12.5541 18.0088 12.6644 18.004 12.7671 17.9699L13.5871 17.6969L14.4621 17.4049L15.0121 17.2209C15.4381 17.0789 15.6521 17.0089 15.8521 16.9129C16.0888 16.7996 16.3118 16.6622 16.5191 16.5009ZM22.3671 10.6919C22.7728 10.2861 23.0006 9.73583 23.0005 9.16206C23.0004 8.5883 22.7724 8.03807 22.3666 7.63242C21.9608 7.22677 21.4105 6.99893 20.8368 6.99902C20.263 6.99912 19.7128 7.22714 19.3071 7.63292L19.1811 7.76092C19.1203 7.8204 19.075 7.89391 19.0492 7.97498C19.0234 8.05605 19.0179 8.14222 19.0331 8.22592C19.0531 8.33292 19.0881 8.49092 19.1531 8.67792C19.2831 9.05292 19.5291 9.54492 19.9921 10.0079C20.4551 10.4709 20.9471 10.7169 21.3221 10.8469C21.5101 10.9119 21.6671 10.9469 21.7741 10.9669C21.8578 10.9813 21.9438 10.9754 22.0247 10.9496C22.1056 10.9239 22.1791 10.879 22.2391 10.8189L22.3671 10.6919Z" fill="#1F5DAB"/>
<path id="Vector_2" fill-rule="evenodd" clip-rule="evenodd" d="M4.172 3.172C3 4.343 3 6.229 3 10V14C3 17.771 3 19.657 4.172 20.828C5.344 21.999 7.229 22 11 22H13C16.771 22 18.657 22 19.828 20.828C20.981 19.676 21 17.832 21 14.18L18.182 16.998C17.912 17.268 17.691 17.489 17.442 17.684C17.1499 17.9128 16.8333 18.1083 16.498 18.267C16.1911 18.4051 15.8758 18.5236 15.554 18.622L13.242 19.393C12.875 19.5154 12.4811 19.5332 12.1046 19.4443C11.728 19.3554 11.3837 19.1635 11.1101 18.8899C10.8365 18.6163 10.6446 18.272 10.5557 17.8954C10.4668 17.5189 10.4846 17.125 10.607 16.758L10.881 15.938L11.356 14.512L11.377 14.446C11.498 14.084 11.597 13.788 11.733 13.502C11.893 13.166 12.0873 12.8517 12.316 12.559C12.511 12.309 12.732 12.089 13.002 11.819L17.008 7.812L18.12 6.7L18.247 6.573C18.5868 6.23215 18.9907 5.96188 19.4353 5.77773C19.88 5.59358 20.3567 5.49919 20.838 5.5C20.687 4.47 20.394 3.737 19.828 3.172C18.657 2 16.771 2 13 2H11C7.229 2 5.343 2 4.172 3.172ZM7.25 9C7.25 8.80109 7.32902 8.61032 7.46967 8.46967C7.61032 8.32902 7.80109 8.25 8 8.25H14.5C14.6989 8.25 14.8897 8.32902 15.0303 8.46967C15.171 8.61032 15.25 8.80109 15.25 9C15.25 9.19891 15.171 9.38968 15.0303 9.53033C14.8897 9.67098 14.6989 9.75 14.5 9.75H8C7.80109 9.75 7.61032 9.67098 7.46967 9.53033C7.32902 9.38968 7.25 9.19891 7.25 9ZM7.25 13C7.25 12.8011 7.32902 12.6103 7.46967 12.4697C7.61032 12.329 7.80109 12.25 8 12.25H10.5C10.6989 12.25 10.8897 12.329 11.0303 12.4697C11.171 12.6103 11.25 12.8011 11.25 13C11.25 13.1989 11.171 13.3897 11.0303 13.5303C10.8897 13.671 10.6989 13.75 10.5 13.75H8C7.80109 13.75 7.61032 13.671 7.46967 13.5303C7.32902 13.3897 7.25 13.1989 7.25 13ZM7.25 17C7.25 16.8011 7.32902 16.6103 7.46967 16.4697C7.61032 16.329 7.80109 16.25 8 16.25H9.5C9.69891 16.25 9.88968 16.329 10.0303 16.4697C10.171 16.6103 10.25 16.8011 10.25 17C10.25 17.1989 10.171 17.3897 10.0303 17.5303C9.88968 17.671 9.69891 17.75 9.5 17.75H8C7.80109 17.75 7.61032 17.671 7.46967 17.5303C7.32902 17.3897 7.25 17.1989 7.25 17Z" fill="#1F5DAB"/>
</g>
</svg>
